HIERARCHY
ROOT Hips
{
	OFFSET 0.0000 0.0000 0.0000
	CHANNELS 6 Xposition Yposition Zposition Zrotation Xrotation Yrotation
	JOINT Spine1
	{
		OFFSET -0.0137 5.0038 -0.0537
		CHANNELS 3 Zrotation Xrotation Yrotation
		JOINT Spine2
		{
			OFFSET -0.0000 7.1253 -0.0298
			CHANNELS 3 Zrotation Xrotation Yrotation
			JOINT Chest
			{
				OFFSET -0.0000 7.5501 -0.8160
				CHANNELS 3 Zrotation Xrotation Yrotation
				JOINT Neck1
				{
					OFFSET -0.1817 26.3113 -0.5533
					CHANNELS 3 Zrotation Xrotation Yrotation
					JOINT Neck2
					{
						OFFSET -0.0000 7.7094 2.3026
						CHANNELS 3 Zrotation Xrotation Yrotation
						JOINT Head
						{
							OFFSET -0.0000 6.1289 1.9537
							CHANNELS 3 Zrotation Xrotation Yrotation
							JOINT Jaw
							{
								OFFSET 0.0026 0.4756 3.0949
								CHANNELS 3 Zrotation Xrotation Yrotation
								End Site
								{
									OFFSET 0.0 1.0 0.0
								}
							}
							JOINT LeftEye
							{
								OFFSET 3.2064 5.3802 7.5869
								CHANNELS 3 Zrotation Xrotation Yrotation
								End Site
								{
									OFFSET 0.0 1.0 0.0
								}
							}
							JOINT RightEye
							{
								OFFSET -3.2224 5.3619 7.5582
								CHANNELS 3 Zrotation Xrotation Yrotation
								End Site
								{
									OFFSET 0.0 1.0 0.0
								}
							}
						}
					}
				}
				JOINT LeftShoulder
				{
					OFFSET 1.6217 23.2372 5.1134
					CHANNELS 3 Zrotation Xrotation Yrotation
					JOINT LeftArm
					{
						OFFSET 14.9198 0.0000 -5.5023
						CHANNELS 3 Zrotation Xrotation Yrotation
						JOINT LeftForeArm
						{
							OFFSET 28.7393 0.0000 -0.0026
							CHANNELS 3 Zrotation Xrotation Yrotation
							JOINT LeftHand
							{
								OFFSET 27.0940 -0.0000 0.0026
								CHANNELS 3 Zrotation Xrotation Yrotation
								JOINT LeftHandThumbEnd
								{
									OFFSET 12.2686 -3.2202 4.8331
									CHANNELS 3 Zrotation Xrotation Yrotation
									End Site
									{
										OFFSET 0.0 1.0 0.0
									}
								}
								JOINT LeftHandMiddleEnd
								{
									OFFSET 19.0120 -0.3129 -0.0340
									CHANNELS 3 Zrotation Xrotation Yrotation
									End Site
									{
										OFFSET 0.0 1.0 0.0
									}
								}
							}
						}
					}
				}
				JOINT RightShoulder
				{
					OFFSET -1.3801 23.1803 5.2142
					CHANNELS 3 Zrotation Xrotation Yrotation
					JOINT RightArm
					{
						OFFSET -15.0372 0.0000 -5.5456
						CHANNELS 3 Zrotation Xrotation Yrotation
						JOINT RightForeArm
						{
							OFFSET -28.7366 0.0000 -0.0026
							CHANNELS 3 Zrotation Xrotation Yrotation
							JOINT RightHand
							{
								OFFSET -27.1336 -0.0000 0.0026
								CHANNELS 3 Zrotation Xrotation Yrotation
								JOINT RightHandThumbEnd
								{
									OFFSET -12.2642 -3.2115 4.8040
									CHANNELS 3 Zrotation Xrotation Yrotation
									End Site
									{
										OFFSET 0.0 1.0 0.0
									}
								}
								JOINT RightHandMiddleEnd
								{
									OFFSET -19.0006 -0.3066 -0.0316
									CHANNELS 3 Zrotation Xrotation Yrotation
									End Site
									{
										OFFSET 0.0 1.0 0.0
									}
								}
							}
						}
					}
				}
			}
		}
	}
	JOINT LeftLeg
	{
		OFFSET 10.0432 -8.4345 2.5957
		CHANNELS 3 Zrotation Xrotation Yrotation
		JOINT LeftShin
		{
			OFFSET -0.0000 -43.2218 -0.8029
			CHANNELS 3 Zrotation Xrotation Yrotation
			JOINT LeftFoot
			{
				OFFSET 0.0000 -42.1551 -3.4815
				CHANNELS 3 Zrotation Xrotation Yrotation
				JOINT LeftToeBase
				{
					OFFSET 0.0000 -5.0595 13.2315
					CHANNELS 3 Zrotation Xrotation Yrotation
					End Site
					{
						OFFSET 0.0 1.0 0.0
					}
				}
			}
		}
	}
	JOINT RightLeg
	{
		OFFSET -10.0473 -8.2953 2.6203
		CHANNELS 3 Zrotation Xrotation Yrotation
		JOINT RightShin
		{
			OFFSET 0.0000 -43.3622 -0.8056
			CHANNELS 3 Zrotation Xrotation Yrotation
			JOINT RightFoot
			{
				OFFSET 0.0000 -42.1174 -3.4784
				CHANNELS 3 Zrotation Xrotation Yrotation
				JOINT RightToeBase
				{
					OFFSET -0.0000 -5.0796 13.2842
					CHANNELS 3 Zrotation Xrotation Yrotation
					End Site
					{
						OFFSET 0.0 1.0 0.0
					}
				}
			}
		}
	}
}
MOTION
Frames: 13
Frame Time: 0.033333
-2.5625 98.7346 -1.6213 -0.7778 2.6581 -0.0539 1.0447 2.0517 -0.3403 -0.1994 -4.5348 -1.4045 -1.7177 15.3671 -4.2977 3.7036 7.9912 2.0891 -0.0781 -3.6729 1.5306 0.4209 -13.1593 0.8047 0.0159 -0.0173 -0.0743 0.6977 -10.5435 -3.9277 -0.6605 -10.5295 3.7800 -9.9725 11.5767 -20.2913 -42.7422 -31.5145 -19.7547 -0.5304 0.4028 -70.5172 -9.7629 -71.1979 -6.7148 -15.4530 11.1754 15.6220 -59.0891 1.8351 2.1551 4.0147 14.3338 14.2057 15.8059 -1.0933 45.5675 1.1776 0.2860 124.1922 -12.4060 28.5487 -35.0437 15.4074 8.0393 -17.0301 51.8835 -3.1732 -5.2567 10.6937 -16.6030 21.5827 -0.2012 15.5217 -0.3612 -12.6853 -2.0367 -7.8504 1.6197 -0.8960 -1.8366 -8.0637 -14.4697 -15.7271 0.1153 15.5664 0.2348 10.8676 -3.5451 -0.0454 -1.3982 -0.7541 1.0411
-2.5850 98.7414 -1.6306 -0.7544 2.6784 -0.0781 1.1070 2.1182 -0.3449 -0.1638 -4.5132 -1.3675 -1.7024 15.3413 -4.3420 3.5242 7.8145 2.0867 -0.0344 -3.6893 1.5775 0.4149 -13.1571 0.8408 0.0061 -0.0162 -0.0441 0.6867 -10.5366 -3.8982 -0.6696 -10.5242 3.8122 -10.0652 11.5732 -20.4378 -43.2205 -31.0952 -19.8324 -0.5824 0.2772 -70.7765 -7.9714 -72.4913 -8.0937 -15.4979 11.2050 15.5565 -59.1571 1.8399 2.1461 3.9588 14.4667 14.1989 15.2262 -1.6867 46.6084 1.0875 0.4425 123.8958 -12.8806 29.3889 -35.3626 15.4709 8.0500 -16.9648 51.9076 -3.0804 -5.1695 10.6439 -16.7090 21.5860 -0.2072 15.7124 -0.3953 -12.7566 -2.1744 -7.9215 1.6196 -0.8729 -1.8315 -8.0943 -14.5250 -15.5336 0.1104 15.6051 0.2616 10.9013 -3.5640 -0.2833 -1.4070 -0.6489 1.0464
-2.5602 98.7208 -1.6390 -0.7015 2.7049 -0.1478 1.1514 2.1719 -0.3120 -0.1291 -4.5065 -1.3928 -1.6857 15.3727 -4.3437 3.4048 7.6568 2.1451 -0.0191 -3.7234 1.5566 0.3337 -13.1330 0.9247 0.0009 -0.0174 -0.0237 0.6783 -10.5499 -3.8760 -0.6717 -10.5382 3.8312 -10.2035 11.6009 -20.5733 -43.8975 -30.4261 -19.6749 -0.6995 0.1600 -71.4404 -5.5091 -73.8162 -9.8808 -15.6142 11.2207 15.5145 -59.2856 1.7654 2.1471 3.9329 14.5449 14.2280 14.3767 -2.1029 47.8886 0.9577 0.6671 123.4751 -13.8320 30.7576 -36.3397 15.4651 8.0733 -16.9458 51.9600 -3.0070 -5.1628 10.5413 -16.8247 21.6494 -0.1994 15.9546 -0.4054 -12.7312 -2.3306 -7.9563 1.6216 -0.8354 -1.8436 -8.1848 -14.7199 -15.3445 0.1142 15.8392 0.2665 10.9231 -3.6481 -0.3835 -1.4123 -0.5638 1.0669
-2.5547 98.6961 -1.6626 -0.6606 2.7226 -0.2720 1.1994 2.2106 -0.2781 -0.0965 -4.4984 -1.4240 -1.6427 15.4248 -4.3167 3.3112 7.5493 2.2110 -0.0084 -3.7431 1.5496 0.2069 -13.1661 1.0474 0.0008 -0.0212 -0.0216 0.6758 -10.5607 -3.8713 -0.6691 -10.5522 3.8299 -10.4033 11.6854 -20.6783 -44.7151 -29.4700 -19.3913 -0.8593 0.0927 -72.4552 -1.8884 -75.0478 -12.6575 -15.6731 11.2618 15.4579 -59.4731 1.7194 2.1286 3.9245 14.6413 14.3116 13.1894 -2.2333 49.3509 0.7163 0.9935 122.8770 -15.0407 32.4259 -37.7742 15.4184 8.1135 -16.9491 51.9873 -2.9670 -5.1842 10.4388 -16.9085 21.7513 -0.1820 16.1711 -0.4067 -12.6728 -2.4363 -7.8910 1.6213 -0.8402 -1.8522 -8.2774 -14.8988 -15.1003 0.1183 16.0469 0.2613 10.9463 -3.6987 -0.4371 -1.4136 -0.5719 1.0906
-2.5191 98.6646 -1.6767 -0.6384 2.7540 -0.4243 1.2575 2.2288 -0.2405 -0.0652 -4.4804 -1.4453 -1.5885 15.4720 -4.2912 3.2334 7.4314 2.2962 0.0170 -3.7429 1.5228 0.0809 -13.2263 1.1744 0.0031 -0.0215 -0.0253 0.6750 -10.5678 -3.8746 -0.6635 -10.5606 3.8232 -10.6393 11.8027 -20.7217 -45.6156 -28.1598 -19.0771 -1.0229 0.0691 -73.8405 2.7601 -76.3001 -16.2624 -15.6836 11.3247 15.3995 -59.6584 1.6874 2.0638 3.8994 14.7326 14.4301 11.7164 -2.1970 50.9559 0.3393 1.4149 122.0144 -16.0878 34.3431 -39.3265 15.3765 8.1474 -16.9484 51.9189 -2.9479 -5.2581 10.3376 -17.0046 21.8907 -0.1668 16.3698 -0.4155 -12.6159 -2.4949 -7.8265 1.6204 -0.8425 -1.8598 -8.3434 -15.0508 -14.8648 0.1287 16.1686 0.2683 10.9756 -3.6868 -0.4759 -1.4139 -0.6053 1.1042
-2.4739 98.6417 -1.7095 -0.6366 2.7894 -0.5462 1.3209 2.2509 -0.2363 -0.0360 -4.4593 -1.4478 -1.5410 15.4970 -4.2779 3.1780 7.3408 2.3626 0.0350 -3.7391 1.4730 -0.0471 -13.2575 1.3457 0.0065 -0.0219 -0.0443 0.6775 -10.5654 -3.8917 -0.6592 -10.5596 3.7986 -10.9111 11.9660 -20.7196 -46.4525 -26.5950 -18.8102 -1.1716 0.0197 -75.4877 7.7065 -77.4099 -20.0139 -15.6710 11.3820 15.3491 -59.8163 1.6506 1.9869 3.8737 14.7769 14.5821 10.1177 -2.1048 52.4560 -0.1218 1.7375 120.9848 -16.8902 36.3573 -40.8031 15.3040 8.1456 -16.9432 51.7105 -2.9779 -5.3351 10.2533 -17.1155 22.0162 -0.1578 16.5721 -0.4229 -12.5464 -2.5363 -7.7916 1.6201 -0.8475 -1.8644 -8.3824 -15.1537 -14.6682 0.1450 16.1958 0.2888 10.9998 -3.6098 -0.5347 -1.4117 -0.6320 1.1055
-2.4154 98.6226 -1.7421 -0.6545 2.8255 -0.6577 1.3813 2.2779 -0.2170 -0.0061 -4.4318 -1.4567 -1.5063 15.4928 -4.2278 3.1736 7.2512 2.4220 0.0257 -3.7415 1.4062 -0.1677 -13.2502 1.4825 0.0085 -0.0238 -0.0524 0.6800 -10.5659 -3.8989 -0.6573 -10.5609 3.7878 -11.1704 12.1720 -20.6990 -47.3341 -24.8525 -18.5504 -1.2702 -0.0050 -77.2670 12.3292 -78.1889 -23.3424 -15.6703 11.4000 15.3184 -59.8929 1.6056 1.9313 3.8688 14.7712 14.7554 8.5325 -2.0028 53.7008 -0.6096 1.9482 119.8421 -17.5196 38.3067 -42.1427 15.2364 8.1268 -16.9406 51.4771 -3.0070 -5.4101 10.2087 -17.2327 22.0930 -0.1565 16.7763 -0.4328 -12.5098 -2.5851 -7.7436 1.6194 -0.8590 -1.8667 -8.4016 -15.2006 -14.4692 0.1553 16.1376 0.3012 11.0188 -3.4933 -0.6095 -1.4093 -0.6524 1.1072
-2.3482 98.6130 -1.7790 -0.6956 2.8708 -0.6905 1.4450 2.3128 -0.2183 0.0082 -4.4146 -1.4431 -1.4750 15.4872 -4.1767 3.2291 7.1589 2.4559 -0.0002 -3.7509 1.3340 -0.2934 -13.2393 1.5909 0.0085 -0.0259 -0.0565 0.6798 -10.5690 -3.9012 -0.6564 -10.5615 3.7803 -11.4117 12.4053 -20.6605 -48.2412 -23.0185 -18.2819 -1.3575 -0.0125 -79.1544 16.2406 -78.6001 -25.8374 -15.6069 11.3977 15.3208 -59.9096 1.5490 1.8913 3.9264 14.7598 14.9127 6.9012 -2.0698 54.6422 -1.0759 2.0341 118.5980 -17.8065 39.9349 -43.1929 15.1971 8.0737 -16.9463 51.2335 -3.0394 -5.4608 10.1842 -17.3591 22.0834 -0.1624 16.9425 -0.4515 -12.4896 -2.5946 -7.6439 1.6195 -0.8427 -1.8638 -8.3969 -15.2093 -14.3150 0.1582 16.0219 0.3137 11.0402 -3.3639 -0.7223 -1.4067 -0.6650 1.1094
-2.2828 98.6114 -1.8301 -0.7576 2.9170 -0.6740 1.4907 2.3521 -0.2177 0.0162 -4.4018 -1.4256 -1.4478 15.4860 -4.1258 3.3675 7.0552 2.4599 -0.0410 -3.7563 1.2444 -0.4236 -13.1721 1.6449 0.0095 -0.0278 -0.0659 0.6797 -10.5657 -3.9092 -0.6541 -10.5554 3.7683 -11.6110 12.6786 -20.5968 -49.1726 -21.1965 -17.9917 -1.4120 -0.0032 -81.0584 18.9290 -78.5214 -27.0315 -15.4648 11.4199 15.3245 -59.9175 1.5137 1.8658 4.0383 14.7108 15.0563 5.3767 -2.3919 55.2387 -1.4697 2.0770 117.2498 -17.4513 40.8546 -43.7585 15.2167 7.9644 -16.9119 51.0124 -3.0667 -5.4867 10.1835 -17.4714 21.9972 -0.1677 17.0513 -0.4712 -12.4719 -2.5894 -7.5166 1.6238 -0.8011 -1.8560 -8.3655 -15.1709 -14.2206 0.1610 15.8583 0.3272 11.0613 -3.2481 -0.8390 -1.4049 -0.6584 1.1072
-2.2360 98.6256 -1.8627 -0.8254 2.9671 -0.5978 1.5101 2.3861 -0.2229 0.0052 -4.3956 -1.3921 -1.4241 15.5001 -4.0575 3.5882 6.9720 2.4239 -0.0903 -3.7565 1.1355 -0.4925 -13.0830 1.5830 0.0114 -0.0320 -0.0767 0.6804 -10.5673 -3.9188 -0.6506 -10.5554 3.7549 -11.7211 12.9777 -20.5176 -50.1453 -19.5268 -17.6196 -1.4797 -0.0296 -82.8873 19.6869 -77.8191 -26.2883 -15.3513 11.4218 15.3320 -59.9536 1.4841 1.8580 4.2021 14.6212 15.1863 4.0494 -3.0079 55.4128 -1.7672 2.0641 115.8499 -16.3063 40.8152 -43.7462 15.2473 7.8397 -16.8865 50.8427 -3.0923 -5.5108 10.1855 -17.5848 21.8615 -0.1687 17.1224 -0.4761 -12.4262 -2.5635 -7.4071 1.6278 -0.7232 -1.8458 -8.3026 -15.1226 -14.2088 0.1525 15.6801 0.3187 11.0795 -3.1388 -0.9328 -1.4028 -0.6041 1.1014
-2.2038 98.6218 -1.8864 -0.9038 3.0126 -0.4425 1.4982 2.4003 -0.2133 -0.0151 -4.3843 -1.3572 -1.3984 15.5155 -3.9769 3.8807 6.9278 2.3280 -0.1533 -3.7571 1.0211 -0.4970 -12.9601 1.4073 0.0147 -0.0366 -0.0926 0.6807 -10.5629 -3.9327 -0.6438 -10.5511 3.7358 -11.7581 13.2617 -20.3883 -51.1775 -17.9838 -17.1543 -1.6018 -0.0384 -84.6152 19.0727 -76.5443 -24.1400 -15.2705 11.4613 15.3629 -59.9985 1.4806 1.8361 4.4673 14.5338 15.2900 2.9037 -3.7870 55.1649 -1.9979 1.9924 114.4058 -14.4764 39.9245 -43.3896 15.1900 7.7260 -16.8620 50.6898 -3.1097 -5.5153 10.2120 -17.7132 21.6625 -0.1743 17.1904 -0.4828 -12.3604 -2.5218 -7.3165 1.6318 -0.6645 -1.8397 -8.2196 -15.0466 -14.2852 0.1461 15.4993 0.3188 11.0920 -3.0547 -1.0395 -1.4006 -0.5698 1.1020
-2.1815 98.6115 -1.9237 -0.9913 3.0571 -0.2557 1.4722 2.4095 -0.1763 -0.0456 -4.3844 -1.3088 -1.3849 15.5419 -3.8897 4.2368 6.9132 2.2212 -0.2293 -3.7558 0.8540 -0.4330 -12.8204 1.1291 0.0174 -0.0409 -0.1012 0.6817 -10.5673 -3.9414 -0.6389 -10.5555 3.7272 -11.7366 13.5205 -20.2237 -52.1802 -16.6426 -16.5864 -1.7497 -0.0673 -86.2764 17.6827 -74.7313 -21.1789 -15.2710 11.4909 15.4019 -60.0478 1.4868 1.8467 4.8084 14.4698 15.4188 1.8981 -4.6340 54.4828 -2.1507 1.8710 113.0050 -12.1460 38.2335 -42.9132 15.0811 7.6504 -16.8373 50.5568 -3.1157 -5.5031 10.2708 -17.8708 21.4252 -0.1786 17.3111 -0.4814 -12.2929 -2.5070 -7.2249 1.6327 -0.6300 -1.8485 -8.1210 -14.9857 -14.3873 0.1325 15.3813 0.3046 11.1035 -3.0093 -1.1430 -1.3991 -0.5480 1.0985
-2.1783 98.5887 -1.9308 -1.0846 3.0963 -0.0094 1.4315 2.3922 -0.1643 -0.0815 -4.3688 -1.2113 -1.3687 15.5396 -3.7900 4.6233 6.9705 2.0745 -0.3282 -3.7644 0.6597 -0.3076 -12.6728 0.8197 0.0189 -0.0435 -0.1160 0.6795 -10.5641 -3.9540 -0.6341 -10.5521 3.7098 -11.6423 13.7144 -19.9871 -53.1882 -15.4472 -15.9338 -1.8789 -0.1262 -87.9388 15.8036 -72.2192 -17.7817 -15.2792 11.5391 15.4583 -60.0537 1.5243 1.8452 5.1865 14.4112 15.5068 1.0949 -5.3613 53.5064 -2.2936 1.6889 111.5870 -9.3986 35.7893 -42.3829 14.8948 7.6431 -16.8334 50.5083 -3.1183 -5.4822 10.3493 -18.0435 21.1355 -0.1770 17.4405 -0.4672 -12.2430 -2.5111 -7.1502 1.6323 -0.6115 -1.8575 -8.0059 -14.9096 -14.5623 0.1253 15.2722 0.3047 11.1095 -2.9864 -1.2313 -1.3950 -0.5664 1.0857
